<svg width="33" height="34" viewBox="0 0 33 34" fill="none" xmlns="http://www.w3.org/2000/svg">
<circle cx="16.125" cy="17" r="16.125" fill="#1D37AF"/>
<path d="M15.0786 21.7569C16.399 21.7569 17.3558 21.3597 17.9489 20.5652C18.5531 19.7595 18.8776 18.3551 18.9224 16.3521V16.1507C18.9224 14.1365 18.6091 12.6929 17.9824 11.8201C17.367 10.9473 16.371 10.5109 14.9947 10.5109C12.5888 10.5109 11.3859 12.4132 11.3859 16.2178C11.3859 18.0642 11.6824 19.4518 12.2755 20.3805C12.8797 21.2981 13.8141 21.7569 15.0786 21.7569ZM13.5176 25.8357C11.2236 25.8357 9.42201 24.9853 8.11277 23.2844C6.81472 21.5835 6.16569 19.2168 6.16569 16.1843C6.16569 13.0734 6.84269 10.6675 8.19669 8.96665C9.56188 7.26576 11.4642 6.41531 13.9036 6.41531C15.2241 6.41531 16.3095 6.6503 17.16 7.12029C18.0216 7.59027 18.7322 8.29525 19.2917 9.23521H19.5434C19.812 8.18334 20.1869 7.34968 20.668 6.73423H24.8979C24.5398 7.81967 24.2489 9.06736 24.0251 10.4773C23.8125 11.8761 23.7061 13.1573 23.7061 14.3211V19.5581C23.7061 20.8785 24.1761 21.5387 25.1161 21.5387C25.4742 21.5387 25.8043 21.4828 26.1064 21.3709V25.3993C25.9274 25.5112 25.5805 25.6119 25.0657 25.7014C24.5622 25.7909 24.1426 25.8357 23.8069 25.8357C22.5536 25.8357 21.5968 25.6231 20.9366 25.1979C20.2764 24.7615 19.756 24.0397 19.3756 23.0326H19.0231C17.7922 24.9013 15.957 25.8357 13.5176 25.8357Z" fill="#BBF41C"/>
</svg>
